<mxfile host="app.diagrams.net" modified="2024-04-11T07:19:30.776Z" agent="Mozilla/5.0 (Windows NT 10.0; Win64; x64) AppleWebKit/537.36 (KHTML, like Gecko) Chrome/122.0.0.0 Safari/537.36" version="24.2.3" etag="Wq-YvopjT2I6pcShIy-z" type="github">
  <diagram name="第 1 页" id="hBMo2iO8TNGGnvvu8gl4">
    <mxGraphModel>
      <root>
        <mxCell id="0" />
        <mxCell id="1" parent="0" />
      </root>
    </mxGraphModel>
  </diagram>
</mxfile>
